<svg xmlns="http://www.w3.org/2000/svg" width="48" height="38" viewBox="0 0 48 38"><path d="M13 5c-2.216 0-4 1.784-4 4v30c0 2.216 1.784 4 4 4h22c2.216 0 4-1.784 4-4V9c0-2.216-1.784-4-4-4ZM4 8v2H0v4h4v2h4V8Zm36 0v8h4v-2h4v-4h-4V8ZM16 9a3 3 0 0 1 3 3 3 3 0 0 1-3 3 3 3 0 0 1-3-3 3 3 0 0 1 3-3M4 20v2H0v4h4v2h4v-8zm36 0v8h4v-2h4v-4h-4v-2ZM4 32v2H0v4h4v2h4v-8zm36 0v8h4v-2h4v-4h-4v-2z" style="fill:#4fc3f7;fill-opacity:1;stroke-width:.739914;stroke-linecap:round;stroke-linejoin:round" transform="translate(0 -5)"/></svg>