<svg xmlns="http://www.w3.org/2000/svg" xml:space="preserve" width="228" height="228" viewBox="0 0 228 228"><defs><linearGradient id="a" x1="517.151" x2="903.279" y1="13.746" y2="399.874" gradientTransform="matrix(.17768 0 0 .42728 77.793 10.345)" gradientUnits="userSpaceOnUse"><stop offset="0%" stop-color="#1d6eed"/><stop offset="50%" stop-color="#0d47a1"/><stop offset="100%" stop-color="#06224c"/></linearGradient><linearGradient id="b" x1="592.756" x2="978.884" y1="-345.421" y2="40.707" gradientTransform="matrix(.17768 0 0 .42728 47.856 -62.198)" gradientUnits="userSpaceOnUse"><stop offset="0%" stop-color="#a7e1fb"/><stop offset="50%" stop-color="#4fc3f7"/><stop offset="100%" stop-color="#0a9ee0"/></linearGradient><linearGradient id="c" x1="-117.459" x2="268.669" y1="-552.231" y2="-166.103" gradientTransform="matrix(.17768 0 0 .42728 -29.983 -72.54)" gradientUnits="userSpaceOnUse"><stop offset="0%" stop-color="#6da6f0"/><stop offset="50%" stop-color="#1a73e8"/><stop offset="100%" stop-color="#0f4a97"/></linearGradient></defs><g transform="translate(-89.981 15.289)"><circle cx="203.981" cy="98.711" r="114" style="fill:#fff;fill-opacity:1;stroke:none;stroke-width:9.5;stroke-linecap:round;stroke-linejoin:round"/><g><path d="M203.981 13.711c-5.25 0-10.002 2.924-13.945 7.483s-7.285 10.853-10.084 18.504c-3.358 9.179-5.894 20.354-7.402 32.758a41 41 0 0 1 6.996-6.538c1.482-9.101 3.535-17.308 6.04-24.158 2.63-7.188 5.752-12.902 8.987-16.642s6.374-5.407 9.408-5.407 6.173 1.666 9.408 5.407c3.236 3.74 6.359 9.454 8.989 16.642 2.492 6.812 4.533 14.969 6.013 24.01a41 41 0 0 1 7.014 6.62c-1.51-12.378-4.04-23.53-7.393-32.692-2.799-7.651-6.14-13.946-10.084-18.504-3.942-4.559-8.697-7.483-13.947-7.483m31.434 111.252a41 41 0 0 1-6.998 6.541c-1.482 9.103-3.533 17.311-6.04 24.16-.22.602-.449 1.176-.675 1.756l4.603 4.604a92 92 0 0 0 1.707-4.299c3.359-9.18 5.895-20.356 7.403-32.762m-62.865.004c1.508 12.404 4.044 23.579 7.402 32.758a92 92 0 0 0 1.705 4.299l4.603-4.604c-.226-.58-.453-1.154-.673-1.755-2.506-6.85-4.56-15.058-6.041-24.16a41 41 0 0 1-6.996-6.538" style="fill:url(#a);fill-opacity:.6;stroke-linecap:round;stroke-linejoin:round"/><path d="M164.501-189.06q-.54 1.344-1.053 2.75c-3.353 9.165-5.887 20.319-7.397 32.698a41 41 0 0 1 7.013-6.612c1.48-9.047 3.525-17.21 6.019-24.026.222-.606.451-1.187.68-1.772zm39.257-.42a81 81 0 0 1 2.116 5.23c2.5 6.835 4.549 15.025 6.03 24.105a41 41 0 0 1 7.02 6.704c-1.506-12.45-4.047-23.663-7.416-32.87q-1.891-5.165-4.122-9.455zm-47.73 88.326c1.507 12.45 4.051 23.664 7.42 32.872 2.799 7.65 6.14 13.944 10.083 18.503s8.696 7.483 13.946 7.483 10.005-2.925 13.948-7.484c3.943-4.558 7.284-10.853 10.083-18.504 3.362-9.19 5.899-20.38 7.407-32.8a41 41 0 0 1-7.014 6.656c-1.482 9.07-3.53 17.252-6.028 24.082-2.63 7.188-5.754 12.903-8.99 16.643-3.235 3.74-6.372 5.406-9.406 5.406s-6.174-1.665-9.41-5.406-6.356-9.454-8.985-16.642c-2.5-6.835-4.55-15.023-6.03-24.102a41 41 0 0 1-7.024-6.707" style="fill:url(#b);fill-opacity:.6;stroke-linecap:round;stroke-linejoin:round" transform="rotate(60)"/><path d="m-39.522-164.233 5.26-3.038c-.23-.588-.461-1.172-.684-1.782-2.5-6.83-4.546-15.013-6.027-24.085a41 41 0 0 1-7.015-6.654c1.509 12.421 4.047 23.61 7.409 32.8q.516 1.41 1.057 2.76m42.34 7.744c1.697-3.123 3.249-6.638 4.662-10.502 3.369-9.207 5.91-20.42 7.416-32.868a41 41 0 0 1-7.018 6.702c-1.481 9.08-3.531 17.269-6.032 24.104a79 79 0 0 1-2.63 6.33zm-50.791-95.845a41 41 0 0 1 7.01-6.597c1.48-9.048 3.524-17.211 6.017-24.027 2.63-7.188 5.751-12.901 8.986-16.642s6.376-5.405 9.41-5.405 6.173 1.665 9.408 5.405c3.236 3.74 6.358 9.454 8.988 16.642 2.5 6.83 4.546 15.013 6.026 24.084a41 41 0 0 1 7.016 6.655c-1.507-12.421-4.045-23.61-7.407-32.8-2.8-7.651-6.14-13.946-10.084-18.504s-8.699-7.483-13.949-7.483-10 2.924-13.943 7.483-7.286 10.853-10.085 18.504c-3.352 9.16-5.883 20.311-7.393 32.685" style="fill:url(#c);fill-opacity:.6;stroke-linecap:round;stroke-linejoin:round" transform="rotate(120.012)"/><path d="M112.981 39.711c-2.216 0-4 1.784-4 4v28c0 2.216 1.784 4 4 4h40c2.216 0 4-1.784 4-4v-28c0-2.216-1.784-4-4-4zm7.686 7.026a2 2 0 0 1 1.728.56l9 9a2 2 0 0 1 0 2.828l-9 9a2 2 0 0 1-2.828 0 2 2 0 0 1 0-2.828l7.586-7.586-7.586-7.586a2 2 0 0 1 0-2.828 2 2 0 0 1 1.1-.56M132.98 64.71h12a2 2 0 0 1 2 2 2 2 0 0 1-2 2h-12a2 2 0 0 1-2-2 2 2 0 0 1 2-2" style="fill:#1a73e8;fill-opacity:1;stroke:none;stroke-width:3.605;stroke-linecap:square;stroke-linejoin:round;stroke-dasharray:none"/><circle cx="203.981" cy="98.711" r="36" style="fill:#ffab40;fill-opacity:1;stroke:none;stroke-width:.291739;stroke-linecap:round;stroke-linejoin:round;stroke-opacity:1"/><path d="m200.981 156.711-1.523 5.59a19 19 0 0 0-5.309 2.185l-5.018-2.867-4.242 4.242 2.867 5.018a19 19 0 0 0-2.185 5.31l-5.59 1.522v6l5.59 1.523a19 19 0 0 0 2.185 5.31l-2.867 5.017 4.242 4.242 5.018-2.867a19 19 0 0 0 5.31 2.185l1.522 5.59h6l1.523-5.59a19 19 0 0 0 5.31-2.185l5.017 2.867 4.242-4.242-2.867-5.018a19 19 0 0 0 2.185-5.309l5.59-1.523v-6l-5.59-1.523a19 19 0 0 0-2.185-5.309l2.867-5.018-4.242-4.242-5.018 2.867a19 19 0 0 0-5.309-2.185l-1.523-5.59zm3 14a10 10 0 0 1 10 10 10 10 0 0 1-10 10 10 10 0 0 1-10-10 10 10 0 0 1 10-10" style="fill:#0d47a1;fill-opacity:1;stroke:none;stroke-width:2.56434;stroke-linecap:round;stroke-linejoin:round;stroke-dasharray:none;stroke-opacity:1"/><path d="M263.981 38.72c-2.216 0-4 1.784-4 4v30c0 2.216 1.784 4 4 4h22c2.216 0 4-1.784 4-4v-30c0-2.216-1.784-4-4-4zm-9 3v2h-4v4h4v2h4v-8zm36 0v8h4v-2h4v-4h-4v-2zm-24 1a3 3 0 0 1 3 3 3 3 0 0 1-3 3 3 3 0 0 1-3-3 3 3 0 0 1 3-3m-12 11v2h-4v4h4v2h4v-8zm36 0v8h4v-2h4v-4h-4v-2zm-36 12v2h-4v4h4v2h4v-8zm36 0v8h4v-2h4v-4h-4v-2z" style="fill:#4fc3f7;fill-opacity:1;stroke-width:.739914;stroke-linecap:round;stroke-linejoin:round"/></g></g></svg>