<svg xmlns="http://www.w3.org/2000/svg" width="48" height="36" viewBox="0 0 48 36"><path d="M111.981 18.711c-2.216 0-4 1.784-4 4v28c0 2.216 1.784 4 4 4h40c2.216 0 4-1.784 4-4v-28c0-2.216-1.784-4-4-4zm7.686 7.026a2 2 0 0 1 1.728.56l9 9a2 2 0 0 1 0 2.828l-9 9a2 2 0 0 1-2.828 0 2 2 0 0 1 0-2.828l7.586-7.586-7.586-7.586a2 2 0 0 1 0-2.828 2 2 0 0 1 1.1-.56M131.98 43.71h12a2 2 0 0 1 2 2 2 2 0 0 1-2 2h-12a2 2 0 0 1-2-2 2 2 0 0 1 2-2" style="fill:#1a73e8;fill-opacity:1;stroke:none;stroke-width:3.605;stroke-linecap:square;stroke-linejoin:round;stroke-dasharray:none" transform="translate(-107.981 -18.711)"/></svg>