<?xml version="1.0" encoding="UTF-8" standalone="no"?>
<!-- Created with Inkscape (http://www.inkscape.org/) -->

<svg
   version="1.1"
   id="svg1"
   width="192"
   height="192"
   viewBox="0 0 192 192"
   sodipodi:docname="logo.svg"
   inkscape:version="1.4 (86a8ad7, 2024-10-11)"
   xml:space="preserve"
   inkscape:export-filename="optimized\logo.svg"
   inkscape:export-xdpi="96"
   inkscape:export-ydpi="96"
   xmlns:inkscape="http://www.inkscape.org/namespaces/inkscape"
   xmlns:sodipodi="http://sodipodi.sourceforge.net/DTD/sodipodi-0.dtd"
   xmlns="http://www.w3.org/2000/svg"
   xmlns:svg="http://www.w3.org/2000/svg"><defs
     id="defs1"><linearGradient
       id="xOrbSw"
       x1="-117.4594"
       y1="-552.2312"
       x2="268.66895"
       y2="-166.10284"
       gradientTransform="matrix(0.17767569,0,0,0.42728022,-29.983076,-72.540263)"
       gradientUnits="userSpaceOnUse"><stop
         offset="0%"
         stop-color="#6da6f0"
         id="stop1" /><stop
         offset="50%"
         stop-color="#1a73e8"
         id="stop2" /><stop
         offset="100%"
         stop-color="#0f4a97"
         id="stop3" /></linearGradient><linearGradient
       id="xOrbEl"
       x1="592.75586"
       y1="-345.42099"
       x2="978.88422"
       y2="40.707367"
       gradientTransform="matrix(0.17767569,0,0,0.42728022,47.856054,-62.198127)"
       gradientUnits="userSpaceOnUse"><stop
         offset="0%"
         stop-color="#a7e1fb"
         id="stop4" /><stop
         offset="50%"
         stop-color="#4fc3f7"
         id="stop5" /><stop
         offset="100%"
         stop-color="#0a9ee0"
         id="stop6" /></linearGradient><linearGradient
       id="xOrbMe"
       x1="517.15106"
       y1="13.746032"
       x2="903.27942"
       y2="399.87439"
       gradientTransform="matrix(0.17767569,0,0,0.42728022,77.793178,10.345463)"
       gradientUnits="userSpaceOnUse"><stop
         offset="0%"
         stop-color="#1d6eed"
         id="stop7" /><stop
         offset="50%"
         stop-color="#0d47a1"
         id="stop8" /><stop
         offset="100%"
         stop-color="#06224c"
         id="stop9" /></linearGradient><linearGradient
       id="xOrbSw-4"
       x1="-117.4594"
       y1="-552.2312"
       x2="268.66895"
       y2="-166.10284"
       gradientTransform="matrix(0.64484839,0,0,1.5507521,-178.21917,255.31536)"
       gradientUnits="userSpaceOnUse"><stop
         offset="0%"
         stop-color="#6da6f0"
         id="stop1-8" /><stop
         offset="50%"
         stop-color="#1a73e8"
         id="stop2-8" /><stop
         offset="100%"
         stop-color="#0f4a97"
         id="stop3-2" /></linearGradient><linearGradient
       id="xOrbEl-4"
       x1="592.75586"
       y1="-345.42099"
       x2="978.88422"
       y2="40.707367"
       gradientTransform="matrix(0.64484839,0,0,1.5507521,-310.21916,-26.684645)"
       gradientUnits="userSpaceOnUse"><stop
         offset="0%"
         stop-color="#a7e1fb"
         id="stop4-5" /><stop
         offset="50%"
         stop-color="#4fc3f7"
         id="stop5-5" /><stop
         offset="100%"
         stop-color="#0a9ee0"
         id="stop6-1" /></linearGradient><linearGradient
       id="xOrbMe-7"
       x1="517.15106"
       y1="13.746032"
       x2="903.27942"
       y2="399.87439"
       gradientTransform="matrix(0.64484839,0,0,1.5507521,-132,-282)"
       gradientUnits="userSpaceOnUse"><stop
         offset="0%"
         stop-color="#1d6eed"
         id="stop7-1" /><stop
         offset="50%"
         stop-color="#0d47a1"
         id="stop8-1" /><stop
         offset="100%"
         stop-color="#06224c"
         id="stop9-5" /></linearGradient><linearGradient
       id="xOrbSw-0"
       x1="0"
       y1="0"
       x2="1"
       y2="1"><stop
         offset="0%"
         stop-color="#6da6f0"
         id="stop1-1" /><stop
         offset="50%"
         stop-color="#1a73e8"
         id="stop2-4" /><stop
         offset="100%"
         stop-color="#0f4a97"
         id="stop3-6" /></linearGradient><linearGradient
       id="xOrbEl-0"
       x1="0"
       y1="0"
       x2="1"
       y2="1"><stop
         offset="0%"
         stop-color="#a7e1fb"
         id="stop4-7" /><stop
         offset="50%"
         stop-color="#4fc3f7"
         id="stop5-1" /><stop
         offset="100%"
         stop-color="#0a9ee0"
         id="stop6-7" /></linearGradient><linearGradient
       id="xOrbMe-77"
       x1="0"
       y1="0"
       x2="1"
       y2="1"><stop
         offset="0%"
         stop-color="#1d6eed"
         id="stop7-7" /><stop
         offset="50%"
         stop-color="#0d47a1"
         id="stop8-3" /><stop
         offset="100%"
         stop-color="#06224c"
         id="stop9-3" /></linearGradient></defs><sodipodi:namedview
     id="namedview1"
     pagecolor="#ffffff"
     bordercolor="#000000"
     borderopacity="0.21960784"
     inkscape:showpageshadow="2"
     inkscape:pageopacity="0.0"
     inkscape:pagecheckerboard="0"
     inkscape:deskcolor="#d1d1d1"
     showguides="true"
     inkscape:zoom="8"
     inkscape:cx="105.625"
     inkscape:cy="98.1875"
     inkscape:window-width="1920"
     inkscape:window-height="1111"
     inkscape:window-x="-9"
     inkscape:window-y="-9"
     inkscape:window-maximized="1"
     inkscape:current-layer="g5"
     showgrid="true"
     guidecolor="#ff00ff"
     guideopacity="1"><inkscape:grid
       id="grid1"
       units="px"
       originx="0"
       originy="0"
       spacingx="1"
       spacingy="1"
       empcolor="#0099e5"
       empopacity="0.30196078"
       color="#0099e5"
       opacity="0.14901961"
       empspacing="2"
       enabled="true"
       visible="true" /><sodipodi:guide
       position="96,112"
       orientation="1,0"
       id="guide1"
       inkscape:locked="false" /><sodipodi:guide
       position="6,96"
       orientation="0,-1"
       id="guide2"
       inkscape:locked="false" /><sodipodi:guide
       position="-14,144"
       orientation="0,-1"
       id="guide3"
       inkscape:locked="false" /><sodipodi:guide
       position="48,144"
       orientation="1,0"
       id="guide5"
       inkscape:locked="false" /><sodipodi:guide
       position="48,48"
       orientation="0,-1"
       id="guide7"
       inkscape:locked="false" /><sodipodi:guide
       position="144,48"
       orientation="1,0"
       id="guide8"
       inkscape:locked="false" /><sodipodi:guide
       position="72,2"
       orientation="1,0"
       id="guide9"
       inkscape:locked="false" /><sodipodi:guide
       position="120,24"
       orientation="1,0"
       id="guide10"
       inkscape:locked="false" /><sodipodi:guide
       position="96,120"
       orientation="0,-1"
       id="guide11"
       inkscape:locked="false" /><sodipodi:guide
       position="96,24"
       orientation="0,-1"
       id="guide12"
       inkscape:locked="false" /><sodipodi:guide
       position="60,108"
       orientation="1,0"
       id="guide14"
       inkscape:locked="false" /><sodipodi:guide
       position="132,108"
       orientation="1,0"
       id="guide15"
       inkscape:locked="false" /><sodipodi:guide
       position="96,106"
       orientation="-0.5,-0.8660254"
       id="guide16"
       inkscape:locked="false"
       inkscape:label=""
       inkscape:color="rgb(255,0,255)" /><sodipodi:guide
       position="96,106"
       orientation="0.5,-0.8660254"
       id="guide17"
       inkscape:locked="false"
       inkscape:label=""
       inkscape:color="rgb(255,0,255)" /></sodipodi:namedview><g
     inkscape:groupmode="layer"
     inkscape:label="Image"
     id="g1"><g
       id="g5"
       transform="translate(-107.98118,-12.711382)"><ellipse
         style="fill:none;fill-opacity:1;stroke:url(#xOrbMe);stroke-width:6;stroke-linecap:round;stroke-linejoin:round;stroke-dasharray:none;stroke-opacity:0.6"
         id="path33"
         cx="203.98119"
         cy="98.71138"
         rx="30"
         ry="82" /><rect
         style="fill:#ffffff;fill-opacity:1;stroke:none;stroke-width:5.02992;stroke-linecap:square;stroke-linejoin:round;stroke-dasharray:none"
         id="rect47"
         width="53"
         height="53"
         x="243.01871"
         y="-45.454285"
         transform="rotate(45.000013)" /><ellipse
         style="fill:none;fill-opacity:1;stroke:url(#xOrbEl);stroke-width:6;stroke-linecap:round;stroke-linejoin:round;stroke-dasharray:none;stroke-opacity:0.6"
         id="ellipse33"
         cx="187.47716"
         cy="-127.2972"
         rx="30"
         ry="82"
         transform="rotate(60)" /><ellipse
         style="fill:none;fill-opacity:1;stroke:url(#xOrbSw);stroke-width:6;stroke-linecap:round;stroke-linejoin:round;stroke-dasharray:none;stroke-opacity:0.6"
         id="ellipse34"
         cx="-16.54994"
         cy="-226.00522"
         rx="30"
         ry="82"
         transform="rotate(120.01164)" /><rect
         style="fill:#ffffff;fill-opacity:1;stroke:none;stroke-width:4.04263;stroke-linecap:square;stroke-linejoin:round;stroke-dasharray:none"
         id="rect45"
         width="52.999992"
         height="41"
         x="108.98118"
         y="39.711384" /><path
         d="m 112.98118,39.711383 c -2.216,0 -4,1.784 -4,4 v 27.999998 c 0,2.216 1.784,4 4,4 h 40 c 2.216,0 4,-1.784 4,-4 V 43.711383 c 0,-2.216 -1.784,-4 -4,-4 z m 7.686,7.026 a 2,2 0 0 1 1.728,0.56 l 9,8.999998 a 2,2 0 0 1 0,2.828 l -9,9 a 2,2 0 0 1 -2.828,0 2,2 0 0 1 0,-2.828 l 7.586,-7.586 -7.586,-7.585998 a 2,2 0 0 1 0,-2.828 2,2 0 0 1 1.1,-0.56 m 12.313,17.972998 h 12 a 2,2 0 0 1 2,2 2,2 0 0 1 -2,2 h -12 a 2,2 0 0 1 -2,-2 2,2 0 0 1 2,-2"
         style="fill:#1a73e8;fill-opacity:1;stroke:none;stroke-width:3.605;stroke-linecap:square;stroke-linejoin:round;stroke-dasharray:none"
         id="path1-5" /><circle
         style="fill:#ffffff;fill-opacity:1;stroke:none;stroke-width:0.332258;stroke-linecap:round;stroke-linejoin:round;stroke-opacity:1"
         id="circle1"
         cx="203.98119"
         cy="98.71138"
         r="40.999992" /><circle
         style="fill:#ffab40;fill-opacity:1;stroke:none;stroke-width:0.291739;stroke-linecap:round;stroke-linejoin:round;stroke-opacity:1"
         id="path1"
         cx="203.98119"
         cy="98.71138"
         r="35.999996" /><rect
         style="fill:#ffffff;fill-opacity:1;stroke:none;stroke-width:4.14005;stroke-linecap:square;stroke-linejoin:round;stroke-dasharray:none"
         id="rect46"
         width="53.000008"
         height="43"
         x="245.98117"
         y="38.719513" /><path
         d="m 200.98118,156.71138 -1.523,5.59 a 19,19 0 0 0 -5.309,2.185 l -5.018,-2.867 -4.242,4.242 2.867,5.018 a 19,19 0 0 0 -2.185,5.309 l -5.59,1.523 v 6 l 5.59,1.523 a 19,19 0 0 0 2.185,5.309 l -2.867,5.018 4.242,4.242 5.018,-2.867 a 19,19 0 0 0 5.309,2.185 l 1.523,5.59 h 6 l 1.523,-5.59 a 19,19 0 0 0 5.309,-2.185 l 5.018,2.867 4.242,-4.242 -2.867,-5.018 a 19,19 0 0 0 2.185,-5.309 l 5.59,-1.523 v -6 l -5.59,-1.523 a 19,19 0 0 0 -2.185,-5.309 l 2.867,-5.018 -4.242,-4.242 -5.018,2.867 a 19,19 0 0 0 -5.309,-2.185 l -1.523,-5.59 z m 3,14 a 10,10 0 0 1 10,10 10,10 0 0 1 -10,10 10,10 0 0 1 -10,-10 10,10 0 0 1 10,-10"
         style="fill:#0d47a1;fill-opacity:1;stroke:none;stroke-width:2.56434;stroke-linecap:round;stroke-linejoin:round;stroke-dasharray:none;stroke-opacity:1"
         id="path1-8" /><path
         d="m 263.98118,38.719514 c -2.216,0 -4,1.784 -4,4 v 29.999998 c 0,2.216 1.784,4 4,4 h 22 c 2.216,0 4,-1.784 4,-4 V 42.719514 c 0,-2.216 -1.784,-4 -4,-4 z m -9,3 v 2 h -4 v 4 h 4 v 2 h 4 v -8 z m 36,0 v 8 h 4 v -2 h 4 v -4 h -4 v -2 z m -24,1 a 3,3 0 0 1 3,3 3,3 0 0 1 -3,3 3,3 0 0 1 -3,-3 3,3 0 0 1 3,-3 m -12,11 v 1.999998 h -4 v 4 h 4 v 2 h 4 v -7.999998 z m 36,0 v 7.999998 h 4 v -2 h 4 v -4 h -4 v -1.999998 z m -36,11.999998 v 2 h -4 v 4 h 4 v 2 h 4 v -8 z m 36,0 v 8 h 4 v -2 h 4 v -4 h -4 v -2 z"
         style="fill:#4fc3f7;fill-opacity:1;stroke-width:0.739914;stroke-linecap:round;stroke-linejoin:round"
         id="path1-1" /></g></g></svg>
