<?xml version="1.0" encoding="UTF-8" standalone="no"?>
<svg
   version="1.1"
   width="644.80444"
   height="200"
   viewBox="0 0 644.80444 200"
   id="svg2"
   sodipodi:docname="wordmark.svg"
   inkscape:version="1.4 (86a8ad7, 2024-10-11)"
   inkscape:export-filename="optimized\wordmark.svg"
   inkscape:export-xdpi="96"
   inkscape:export-ydpi="96"
   xml:space="preserve"
   xmlns:inkscape="http://www.inkscape.org/namespaces/inkscape"
   xmlns:sodipodi="http://sodipodi.sourceforge.net/DTD/sodipodi-0.dtd"
   xmlns="http://www.w3.org/2000/svg"
   xmlns:svg="http://www.w3.org/2000/svg"><defs
     id="defs1"><rect
       x="129"
       y="-28"
       width="147"
       height="49"
       id="rect3" /><linearGradient
       id="c"
       x1="-117.459"
       x2="268.66901"
       y1="-552.23102"
       y2="-166.103"
       gradientTransform="matrix(0.17768,0,0,0.42728,-29.983,-72.54)"
       gradientUnits="userSpaceOnUse"><stop
         offset="0%"
         stop-color="#6da6f0"
         id="stop1" /><stop
         offset="50%"
         stop-color="#1a73e8"
         id="stop2" /><stop
         offset="100%"
         stop-color="#0f4a97"
         id="stop3" /></linearGradient><linearGradient
       id="b"
       x1="592.75598"
       x2="978.88397"
       y1="-345.42099"
       y2="40.707001"
       gradientTransform="matrix(0.17768,0,0,0.42728,47.856,-62.198)"
       gradientUnits="userSpaceOnUse"><stop
         offset="0%"
         stop-color="#a7e1fb"
         id="stop4" /><stop
         offset="50%"
         stop-color="#4fc3f7"
         id="stop5" /><stop
         offset="100%"
         stop-color="#0a9ee0"
         id="stop6" /></linearGradient><linearGradient
       id="a"
       x1="517.151"
       x2="903.27899"
       y1="13.746"
       y2="399.87399"
       gradientTransform="matrix(0.17768,0,0,0.42728,77.793,10.345)"
       gradientUnits="userSpaceOnUse"><stop
         offset="0%"
         stop-color="#1d6eed"
         id="stop7" /><stop
         offset="50%"
         stop-color="#0d47a1"
         id="stop8" /><stop
         offset="100%"
         stop-color="#06224c"
         id="stop9" /></linearGradient></defs><sodipodi:namedview
     id="namedview2"
     pagecolor="#ffffff"
     bordercolor="#000000"
     borderopacity="0.25"
     inkscape:showpageshadow="2"
     inkscape:pageopacity="0.0"
     inkscape:pagecheckerboard="0"
     inkscape:deskcolor="#d1d1d1"
     inkscape:zoom="1.4142136"
     inkscape:cx="138.59293"
     inkscape:cy="209.65716"
     inkscape:window-width="1920"
     inkscape:window-height="1111"
     inkscape:window-x="-9"
     inkscape:window-y="-9"
     inkscape:window-maximized="1"
     inkscape:current-layer="svg2"
     showgrid="true"
     guidecolor="#ff00ff"
     guideopacity="1"
     showguides="true"><inkscape:grid
       id="grid1"
       units="px"
       originx="4"
       originy="4"
       spacingx="1"
       spacingy="1"
       empcolor="#0099e5"
       empopacity="0.30196078"
       color="#0099e5"
       opacity="0.14902"
       empspacing="2"
       enabled="true"
       visible="true" /><sodipodi:guide
       position="36,156"
       orientation="-1,0"
       id="guide1"
       inkscape:locked="false"
       inkscape:label=""
       inkscape:color="rgb(255,0,255)" /><sodipodi:guide
       position="68,124"
       orientation="-1,0"
       id="guide3"
       inkscape:locked="false"
       inkscape:label=""
       inkscape:color="rgb(255,0,255)" /><sodipodi:guide
       position="68,132"
       orientation="0,1"
       id="guide9"
       inkscape:locked="false"
       inkscape:label=""
       inkscape:color="rgb(255,0,255)" /><sodipodi:guide
       position="252,84"
       orientation="0,1"
       id="guide10"
       inkscape:locked="false"
       inkscape:label=""
       inkscape:color="rgb(255,0,255)" /><sodipodi:guide
       position="132,68"
       orientation="0,1"
       id="guide12"
       inkscape:locked="false"
       inkscape:label=""
       inkscape:color="rgb(255,0,255)" /><sodipodi:guide
       position="-1.0550727e-08,164"
       orientation="0,1"
       id="guide13"
       inkscape:locked="false"
       inkscape:label=""
       inkscape:color="rgb(255,0,255)" /><sodipodi:guide
       position="164,36"
       orientation="0,1"
       id="guide15"
       inkscape:locked="false"
       inkscape:label=""
       inkscape:color="rgb(255,0,255)" /><sodipodi:guide
       position="100,92"
       orientation="-1,0"
       id="guide16"
       inkscape:locked="false"
       inkscape:label=""
       inkscape:color="rgb(255,0,255)" /><sodipodi:guide
       position="132,60"
       orientation="-1,0"
       id="guide17"
       inkscape:locked="false"
       inkscape:label=""
       inkscape:color="rgb(255,0,255)" /><sodipodi:guide
       position="164,28"
       orientation="-1,0"
       id="guide21"
       inkscape:locked="false"
       inkscape:label=""
       inkscape:color="rgb(255,0,255)" /><sodipodi:guide
       position="196,-4"
       orientation="-1,0"
       id="guide25"
       inkscape:locked="false"
       inkscape:label=""
       inkscape:color="rgb(255,0,255)" /><sodipodi:guide
       position="61,100"
       orientation="0,1"
       id="guide4"
       inkscape:locked="false"
       inkscape:label=""
       inkscape:color="rgb(255,0,255)" /><sodipodi:guide
       position="228,92"
       orientation="-1,0"
       id="guide2"
       inkscape:locked="false"
       inkscape:label=""
       inkscape:color="rgb(255,0,255)" /><sodipodi:guide
       position="608.80445,92"
       orientation="-1,0"
       id="guide5"
       inkscape:locked="false"
       inkscape:label=""
       inkscape:color="rgb(255,0,255)" /><sodipodi:guide
       position="640.80445,200"
       orientation="-1,0"
       id="guide6"
       inkscape:locked="false"
       inkscape:label=""
       inkscape:color="rgb(255,0,255)" /><sodipodi:guide
       position="0,196"
       orientation="0,-1"
       id="guide7"
       inkscape:locked="false" /><sodipodi:guide
       position="4,4"
       orientation="0,1"
       id="guide8"
       inkscape:locked="false"
       inkscape:label=""
       inkscape:color="rgb(255,0,255)" /><sodipodi:guide
       position="4,188"
       orientation="1,0"
       id="guide11"
       inkscape:locked="false" /><sodipodi:guide
       position="-1.0550727e-08,200"
       orientation="0,-1"
       id="guide14"
       inkscape:locked="false" /><sodipodi:guide
       position="-1.0550727e-08,192"
       orientation="1,0"
       id="guide18"
       inkscape:locked="false" /><sodipodi:guide
       position="-1.0550727e-08,0"
       orientation="0,1"
       id="guide19"
       inkscape:locked="false"
       inkscape:label=""
       inkscape:color="rgb(255,0,255)" /><sodipodi:guide
       position="644.80445,200"
       orientation="-1,0"
       id="guide20"
       inkscape:label=""
       inkscape:locked="false"
       inkscape:color="rgb(255,0,255)" /></sodipodi:namedview><rect
     width="644.80444"
     height="200"
     fill="#ffffff"
     id="rect1"
     x="0"
     y="0"
     style="stroke-width:1.87038" /><text
     x="220.34396"
     y="114.4466"
     font-family="'Space Grotesk'"
     font-size="110.957px"
     font-weight="600"
     fill="#0d47a1"
     letter-spacing="0.5"
     id="text3"
     style="letter-spacing:0px;stroke-width:2.31159">Eurisco</text><text
     x="224.41457"
     y="163.37254"
     font-family="'Space Grotesk'"
     font-size="44.8179px"
     font-weight="400"
     fill="#1a73e8"
     letter-spacing="1"
     id="text4"
     style="stroke-width:1.86742">Labs</text><g
     transform="translate(-103.981,-8.711)"
     id="g14"><path
       d="m 203.981,13.711 c -5.25,0 -10.002,2.924 -13.945,7.483 -3.943,4.559 -7.285,10.853 -10.084,18.504 -3.358,9.179 -5.894,20.354 -7.402,32.758 a 41,41 0 0 1 6.996,-6.538 c 1.482,-9.101 3.535,-17.308 6.04,-24.158 2.63,-7.188 5.752,-12.902 8.987,-16.642 3.235,-3.74 6.374,-5.407 9.408,-5.407 3.034,0 6.173,1.666 9.408,5.407 3.236,3.74 6.359,9.454 8.989,16.642 2.492,6.812 4.533,14.969 6.013,24.01 a 41,41 0 0 1 7.014,6.62 c -1.51,-12.378 -4.04,-23.53 -7.393,-32.692 -2.799,-7.651 -6.14,-13.946 -10.084,-18.504 -3.942,-4.559 -8.697,-7.483 -13.947,-7.483 m 31.434,111.252 a 41,41 0 0 1 -6.998,6.541 c -1.482,9.103 -3.533,17.311 -6.04,24.16 -0.22,0.602 -0.449,1.176 -0.675,1.756 l 4.603,4.604 a 92,92 0 0 0 1.707,-4.299 c 3.359,-9.18 5.895,-20.356 7.403,-32.762 m -62.865,0.004 c 1.508,12.404 4.044,23.579 7.402,32.758 a 92,92 0 0 0 1.705,4.299 l 4.603,-4.604 c -0.226,-0.58 -0.453,-1.154 -0.673,-1.755 -2.506,-6.85 -4.56,-15.058 -6.041,-24.16 a 41,41 0 0 1 -6.996,-6.538"
       style="fill:url(#a);fill-opacity:0.6;stroke-linecap:round;stroke-linejoin:round"
       id="path9" /><path
       d="m 164.501,-189.06 q -0.54,1.344 -1.053,2.75 c -3.353,9.165 -5.887,20.319 -7.397,32.698 a 41,41 0 0 1 7.013,-6.612 c 1.48,-9.047 3.525,-17.21 6.019,-24.026 0.222,-0.606 0.451,-1.187 0.68,-1.772 z m 39.257,-0.42 a 81,81 0 0 1 2.116,5.23 c 2.5,6.835 4.549,15.025 6.03,24.105 a 41,41 0 0 1 7.02,6.704 c -1.506,-12.45 -4.047,-23.663 -7.416,-32.87 q -1.891,-5.165 -4.122,-9.455 z m -47.73,88.326 c 1.507,12.45 4.051,23.664 7.42,32.872 2.799,7.65 6.14,13.944 10.083,18.503 3.943,4.559 8.696,7.483 13.946,7.483 5.25,0 10.005,-2.925 13.948,-7.484 3.943,-4.558 7.284,-10.853 10.083,-18.504 3.362,-9.19 5.899,-20.38 7.407,-32.8 a 41,41 0 0 1 -7.014,6.656 c -1.482,9.07 -3.53,17.252 -6.028,24.082 -2.63,7.188 -5.754,12.903 -8.99,16.643 -3.235,3.74 -6.372,5.406 -9.406,5.406 -3.034,0 -6.174,-1.665 -9.41,-5.406 -3.236,-3.741 -6.356,-9.454 -8.985,-16.642 -2.5,-6.835 -4.55,-15.023 -6.03,-24.102 a 41,41 0 0 1 -7.024,-6.707"
       style="fill:url(#b);fill-opacity:0.6;stroke-linecap:round;stroke-linejoin:round"
       transform="rotate(60)"
       id="path10" /><path
       d="m -39.522,-164.233 5.26,-3.038 c -0.23,-0.588 -0.461,-1.172 -0.684,-1.782 -2.5,-6.83 -4.546,-15.013 -6.027,-24.085 a 41,41 0 0 1 -7.015,-6.654 c 1.509,12.421 4.047,23.61 7.409,32.8 q 0.516,1.41 1.057,2.76 m 42.34,7.744 c 1.697,-3.123 3.249,-6.638 4.662,-10.502 3.369,-9.207 5.91,-20.42 7.416,-32.868 a 41,41 0 0 1 -7.018,6.702 c -1.481,9.08 -3.531,17.269 -6.032,24.104 a 79,79 0 0 1 -2.63,6.33 z m -50.791,-95.845 a 41,41 0 0 1 7.01,-6.597 c 1.48,-9.048 3.524,-17.211 6.017,-24.027 2.63,-7.188 5.751,-12.901 8.986,-16.642 3.235,-3.741 6.376,-5.405 9.41,-5.405 3.034,0 6.173,1.665 9.408,5.405 3.236,3.74 6.358,9.454 8.988,16.642 2.5,6.83 4.546,15.013 6.026,24.084 a 41,41 0 0 1 7.016,6.655 c -1.507,-12.421 -4.045,-23.61 -7.407,-32.8 -2.8,-7.651 -6.14,-13.946 -10.084,-18.504 -3.944,-4.558 -8.699,-7.483 -13.949,-7.483 -5.25,0 -10,2.924 -13.943,7.483 -3.943,4.559 -7.286,10.853 -10.085,18.504 -3.352,9.16 -5.883,20.311 -7.393,32.685"
       style="fill:url(#c);fill-opacity:0.6;stroke-linecap:round;stroke-linejoin:round"
       transform="rotate(120.012)"
       id="path11" /><path
       d="m 112.981,39.711 c -2.216,0 -4,1.784 -4,4 v 28 c 0,2.216 1.784,4 4,4 h 40 c 2.216,0 4,-1.784 4,-4 v -28 c 0,-2.216 -1.784,-4 -4,-4 z m 7.686,7.026 a 2,2 0 0 1 1.728,0.56 l 9,9 a 2,2 0 0 1 0,2.828 l -9,9 a 2,2 0 0 1 -2.828,0 2,2 0 0 1 0,-2.828 l 7.586,-7.586 -7.586,-7.586 a 2,2 0 0 1 0,-2.828 2,2 0 0 1 1.1,-0.56 M 132.98,64.71 h 12 a 2,2 0 0 1 2,2 2,2 0 0 1 -2,2 h -12 a 2,2 0 0 1 -2,-2 2,2 0 0 1 2,-2"
       style="fill:#1a73e8;fill-opacity:1;stroke:none;stroke-width:3.605;stroke-linecap:square;stroke-linejoin:round;stroke-dasharray:none"
       id="path12" /><circle
       cx="203.981"
       cy="98.710999"
       r="36"
       style="fill:#ffab40;fill-opacity:1;stroke:none;stroke-width:0.291739;stroke-linecap:round;stroke-linejoin:round;stroke-opacity:1"
       id="circle12" /><path
       d="m 200.981,156.711 -1.523,5.59 a 19,19 0 0 0 -5.309,2.185 l -5.018,-2.867 -4.242,4.242 2.867,5.018 a 19,19 0 0 0 -2.185,5.31 l -5.59,1.522 v 6 l 5.59,1.523 a 19,19 0 0 0 2.185,5.31 l -2.867,5.017 4.242,4.242 5.018,-2.867 a 19,19 0 0 0 5.31,2.185 l 1.522,5.59 h 6 l 1.523,-5.59 a 19,19 0 0 0 5.31,-2.185 l 5.017,2.867 4.242,-4.242 -2.867,-5.018 a 19,19 0 0 0 2.185,-5.309 l 5.59,-1.523 v -6 l -5.59,-1.523 a 19,19 0 0 0 -2.185,-5.309 l 2.867,-5.018 -4.242,-4.242 -5.018,2.867 a 19,19 0 0 0 -5.309,-2.185 l -1.523,-5.59 z m 3,14 a 10,10 0 0 1 10,10 10,10 0 0 1 -10,10 10,10 0 0 1 -10,-10 10,10 0 0 1 10,-10"
       style="fill:#0d47a1;fill-opacity:1;stroke:none;stroke-width:2.56434;stroke-linecap:round;stroke-linejoin:round;stroke-dasharray:none;stroke-opacity:1"
       id="path13" /><path
       d="m 263.981,38.72 c -2.216,0 -4,1.784 -4,4 v 30 c 0,2.216 1.784,4 4,4 h 22 c 2.216,0 4,-1.784 4,-4 v -30 c 0,-2.216 -1.784,-4 -4,-4 z m -9,3 v 2 h -4 v 4 h 4 v 2 h 4 v -8 z m 36,0 v 8 h 4 v -2 h 4 v -4 h -4 v -2 z m -24,1 a 3,3 0 0 1 3,3 3,3 0 0 1 -3,3 3,3 0 0 1 -3,-3 3,3 0 0 1 3,-3 m -12,11 v 2 h -4 v 4 h 4 v 2 h 4 v -8 z m 36,0 v 8 h 4 v -2 h 4 v -4 h -4 v -2 z m -36,12 v 2 h -4 v 4 h 4 v 2 h 4 v -8 z m 36,0 v 8 h 4 v -2 h 4 v -4 h -4 v -2 z"
       style="fill:#4fc3f7;fill-opacity:1;stroke-width:0.739914;stroke-linecap:round;stroke-linejoin:round"
       id="path14" /></g></svg>
