<svg xmlns="http://www.w3.org/2000/svg" xml:space="preserve" width="644.804" height="200" viewBox="0 0 644.804 200"><defs><linearGradient id="c" x1="-117.459" x2="268.669" y1="-552.231" y2="-166.103" gradientTransform="matrix(.17768 0 0 .42728 -29.983 -72.54)" gradientUnits="userSpaceOnUse"><stop offset="0%" stop-color="#6da6f0"/><stop offset="50%" stop-color="#1a73e8"/><stop offset="100%" stop-color="#0f4a97"/></linearGradient><linearGradient id="b" x1="592.756" x2="978.884" y1="-345.421" y2="40.707" gradientTransform="matrix(.17768 0 0 .42728 47.856 -62.198)" gradientUnits="userSpaceOnUse"><stop offset="0%" stop-color="#a7e1fb"/><stop offset="50%" stop-color="#4fc3f7"/><stop offset="100%" stop-color="#0a9ee0"/></linearGradient><linearGradient id="a" x1="517.151" x2="903.279" y1="13.746" y2="399.874" gradientTransform="matrix(.17768 0 0 .42728 77.793 10.345)" gradientUnits="userSpaceOnUse"><stop offset="0%" stop-color="#1d6eed"/><stop offset="50%" stop-color="#0d47a1"/><stop offset="100%" stop-color="#06224c"/></linearGradient></defs><path fill="#fff" d="M0 0h644.804v200H0z" style="stroke-width:1.87038"/><path d="M228 114.447v-77.67h49.487V48.87h-36.061v20.416h32.954v12.094h-32.954v20.971h36.616v12.095zm83.107.887q-6.325 0-11.207-2.774-4.882-2.885-7.545-7.989-2.663-5.215-2.663-12.094V59.634h12.65v31.845q0 6.657 3.217 9.875 3.329 3.217 9.32 3.217 6.769 0 10.652-4.438 3.995-4.438 3.995-12.76v-27.74h12.649v54.814h-12.427v-7.656h-1.887q-1.442 2.995-5.326 5.77-3.772 2.773-11.428 2.773m47.267-.887V59.634h12.539v6.324h1.886q1.22-3.44 4.105-4.993t6.88-1.553h6.657V70.73h-6.88q-5.547 0-8.987 2.995-3.44 2.885-3.44 8.988v31.734zm43.385 0V59.634h12.76v54.813Zm6.324-61.803q-3.44 0-5.991-2.22-2.441-2.33-2.441-6.102t2.44-5.992q2.553-2.33 5.992-2.33 3.662 0 5.992 2.33 2.441 2.22 2.441 5.992t-2.441 6.102q-2.33 2.22-5.992 2.22M453.353 116q-10.651 0-17.53-4.66T427.5 97.692l11.761-2.996q.777 4.217 2.774 6.658 1.997 2.44 4.882 3.44 2.996.998 6.436.998 5.215 0 7.767-1.886 2.663-1.887 2.663-4.771 0-2.996-2.552-4.439-2.441-1.442-7.545-2.44l-3.44-.556q-5.659-1.11-10.32-2.995-4.66-1.998-7.544-5.326-2.774-3.44-2.774-8.655 0-7.989 5.88-12.316 5.992-4.328 15.646-4.328 9.209 0 15.2 4.106 5.992 4.105 7.768 10.985l-11.762 3.55q-.887-4.66-3.883-6.546-2.996-1.997-7.323-1.997-4.439 0-6.88 1.553-2.33 1.553-2.33 4.438t2.441 4.328 6.547 2.108l3.44.665q6.102 1.11 10.984 2.885 4.993 1.776 7.878 5.104 2.885 3.33 2.885 8.988 0 8.544-6.214 13.204Q463.784 116 453.354 116m61.249 0q-7.989 0-14.425-3.329-6.435-3.328-10.208-9.653-3.661-6.325-3.661-15.201v-1.553q0-8.877 3.661-15.202 3.773-6.324 10.208-9.653t14.425-3.329q7.878 0 13.426 2.774 5.658 2.774 9.098 7.656 3.44 4.772 4.438 10.763l-12.316 2.552q-.444-3.44-2.108-6.213-1.664-2.885-4.771-4.55-2.996-1.664-7.434-1.664-4.55 0-8.211 1.997-3.55 1.887-5.659 5.77-1.997 3.884-1.997 9.32v1.11q0 5.437 1.997 9.32 2.108 3.773 5.659 5.77 3.662 1.997 8.21 1.997 6.77 0 10.209-3.44 3.55-3.55 4.438-9.098l12.316 2.885q-1.331 5.77-4.77 10.541-3.44 4.771-9.1 7.656Q522.48 116 514.603 116m65.687 0q-8.211 0-14.758-3.329-6.435-3.44-10.208-9.653-3.661-6.325-3.661-15.09v-1.775q0-8.766 3.661-15.09 3.773-6.325 10.208-9.654 6.547-3.329 14.758-3.329t14.646 3.33q6.435 3.328 10.097 9.652 3.772 6.325 3.772 15.09v1.776q0 8.765-3.772 15.09-3.662 6.214-10.097 9.653Q588.499 116 580.289 116m0-11.318q6.99 0 11.428-4.438 4.438-4.55 4.438-12.649v-1.11q0-8.1-4.438-12.538-4.438-4.549-11.428-4.549t-11.43 4.55q-4.437 4.438-4.437 12.537v1.11q0 8.1 4.438 12.65 4.438 4.437 11.428 4.437" aria-label="Eurisco" style="fill:#0d47a1;stroke-width:2.31159"/><path d="M228 163.373V132h3.765v27.966h15.865v3.407zm32.328.627q-2.286 0-4.168-.807-1.883-.806-2.958-2.33t-1.076-3.72q0-2.241 1.076-3.675 1.075-1.48 2.958-2.196 1.882-.762 4.213-.762h7.394v-1.614q0-2.33-1.389-3.675-1.344-1.344-4.033-1.344-2.645 0-4.124 1.3-1.479 1.254-2.017 3.406l-3.316-1.076q.538-1.838 1.703-3.317 1.165-1.523 3.092-2.42 1.972-.94 4.706-.94 4.213 0 6.544 2.195 2.33 2.151 2.33 6.095v9.905q0 1.345 1.255 1.345h2.017v3.003h-3.092q-1.48 0-2.376-.807-.896-.852-.896-2.241v-.224h-.538q-.493.851-1.345 1.793-.806.896-2.24 1.479-1.435.627-3.72.627m.403-3.048q3.137 0 5.064-1.837 1.972-1.883 1.972-5.244v-.493h-7.26q-2.106 0-3.496.941-1.344.897-1.344 2.734 0 1.838 1.389 2.869 1.434 1.03 3.675 1.03m31.79 3.048q-3.406 0-5.333-1.3-1.883-1.3-2.734-2.958h-.628v3.63h-3.45V132h3.54v12.908h.627q.538-1.031 1.524-1.928.986-.94 2.555-1.523 1.613-.628 3.899-.628 2.868 0 5.199 1.39 2.375 1.344 3.765 3.899 1.389 2.51 1.389 6.005v.583q0 3.496-1.434 6.05-1.39 2.555-3.765 3.9-2.33 1.344-5.154 1.344m-.941-3.137q3.406 0 5.512-2.152 2.152-2.196 2.152-6.095v-.403q0-3.9-2.152-6.05-2.106-2.197-5.512-2.197-3.362 0-5.558 2.196-2.15 2.152-2.15 6.05v.404q0 3.9 2.15 6.095 2.196 2.152 5.558 2.152M319.067 164q-4.078 0-6.902-1.882-2.779-1.883-3.361-5.961l3.361-.762q.359 2.151 1.345 3.406.986 1.21 2.42 1.748 1.479.493 3.137.493 2.465 0 3.9-.986 1.433-.986 1.433-2.644 0-1.703-1.389-2.376-1.344-.717-3.72-1.165l-1.837-.314q-2.107-.358-3.855-1.12t-2.778-2.062-1.031-3.271q0-2.958 2.286-4.617t6.05-1.658q3.72 0 6.006 1.703 2.33 1.658 3.002 4.706l-3.316.852q-.404-2.376-1.927-3.317-1.524-.986-3.765-.986t-3.54.852q-1.3.806-1.3 2.42 0 1.568 1.21 2.33 1.255.717 3.316 1.076l1.838.314q2.33.403 4.168 1.12 1.882.672 2.958 1.972 1.12 1.3 1.12 3.406 0 3.227-2.42 4.975-2.375 1.748-6.409 1.748" aria-label="Labs" style="fill:#1a73e8;stroke-width:1.86742"/><g transform="translate(-103.981 -8.711)"><path d="M203.981 13.711c-5.25 0-10.002 2.924-13.945 7.483s-7.285 10.853-10.084 18.504c-3.358 9.179-5.894 20.354-7.402 32.758a41 41 0 0 1 6.996-6.538c1.482-9.101 3.535-17.308 6.04-24.158 2.63-7.188 5.752-12.902 8.987-16.642s6.374-5.407 9.408-5.407 6.173 1.666 9.408 5.407c3.236 3.74 6.359 9.454 8.989 16.642 2.492 6.812 4.533 14.969 6.013 24.01a41 41 0 0 1 7.014 6.62c-1.51-12.378-4.04-23.53-7.393-32.692-2.799-7.651-6.14-13.946-10.084-18.504-3.942-4.559-8.697-7.483-13.947-7.483m31.434 111.252a41 41 0 0 1-6.998 6.541c-1.482 9.103-3.533 17.311-6.04 24.16-.22.602-.449 1.176-.675 1.756l4.603 4.604a92 92 0 0 0 1.707-4.299c3.359-9.18 5.895-20.356 7.403-32.762m-62.865.004c1.508 12.404 4.044 23.579 7.402 32.758a92 92 0 0 0 1.705 4.299l4.603-4.604c-.226-.58-.453-1.154-.673-1.755-2.506-6.85-4.56-15.058-6.041-24.16a41 41 0 0 1-6.996-6.538" style="fill:url(#a);fill-opacity:.6;stroke-linecap:round;stroke-linejoin:round"/><path d="M164.501-189.06q-.54 1.344-1.053 2.75c-3.353 9.165-5.887 20.319-7.397 32.698a41 41 0 0 1 7.013-6.612c1.48-9.047 3.525-17.21 6.019-24.026.222-.606.451-1.187.68-1.772zm39.257-.42a81 81 0 0 1 2.116 5.23c2.5 6.835 4.549 15.025 6.03 24.105a41 41 0 0 1 7.02 6.704c-1.506-12.45-4.047-23.663-7.416-32.87q-1.891-5.165-4.122-9.455zm-47.73 88.326c1.507 12.45 4.051 23.664 7.42 32.872 2.799 7.65 6.14 13.944 10.083 18.503s8.696 7.483 13.946 7.483 10.005-2.925 13.948-7.484c3.943-4.558 7.284-10.853 10.083-18.504 3.362-9.19 5.899-20.38 7.407-32.8a41 41 0 0 1-7.014 6.656c-1.482 9.07-3.53 17.252-6.028 24.082-2.63 7.188-5.754 12.903-8.99 16.643-3.235 3.74-6.372 5.406-9.406 5.406s-6.174-1.665-9.41-5.406-6.356-9.454-8.985-16.642c-2.5-6.835-4.55-15.023-6.03-24.102a41 41 0 0 1-7.024-6.707" style="fill:url(#b);fill-opacity:.6;stroke-linecap:round;stroke-linejoin:round" transform="rotate(60)"/><path d="m-39.522-164.233 5.26-3.038c-.23-.588-.461-1.172-.684-1.782-2.5-6.83-4.546-15.013-6.027-24.085a41 41 0 0 1-7.015-6.654c1.509 12.421 4.047 23.61 7.409 32.8q.516 1.41 1.057 2.76m42.34 7.744c1.697-3.123 3.249-6.638 4.662-10.502 3.369-9.207 5.91-20.42 7.416-32.868a41 41 0 0 1-7.018 6.702c-1.481 9.08-3.531 17.269-6.032 24.104a79 79 0 0 1-2.63 6.33zm-50.791-95.845a41 41 0 0 1 7.01-6.597c1.48-9.048 3.524-17.211 6.017-24.027 2.63-7.188 5.751-12.901 8.986-16.642s6.376-5.405 9.41-5.405 6.173 1.665 9.408 5.405c3.236 3.74 6.358 9.454 8.988 16.642 2.5 6.83 4.546 15.013 6.026 24.084a41 41 0 0 1 7.016 6.655c-1.507-12.421-4.045-23.61-7.407-32.8-2.8-7.651-6.14-13.946-10.084-18.504s-8.699-7.483-13.949-7.483-10 2.924-13.943 7.483-7.286 10.853-10.085 18.504c-3.352 9.16-5.883 20.311-7.393 32.685" style="fill:url(#c);fill-opacity:.6;stroke-linecap:round;stroke-linejoin:round" transform="rotate(120.012)"/><path d="M112.981 39.711c-2.216 0-4 1.784-4 4v28c0 2.216 1.784 4 4 4h40c2.216 0 4-1.784 4-4v-28c0-2.216-1.784-4-4-4zm7.686 7.026a2 2 0 0 1 1.728.56l9 9a2 2 0 0 1 0 2.828l-9 9a2 2 0 0 1-2.828 0 2 2 0 0 1 0-2.828l7.586-7.586-7.586-7.586a2 2 0 0 1 0-2.828 2 2 0 0 1 1.1-.56M132.98 64.71h12a2 2 0 0 1 2 2 2 2 0 0 1-2 2h-12a2 2 0 0 1-2-2 2 2 0 0 1 2-2" style="fill:#1a73e8;fill-opacity:1;stroke:none;stroke-width:3.605;stroke-linecap:square;stroke-linejoin:round;stroke-dasharray:none"/><circle cx="203.981" cy="98.711" r="36" style="fill:#ffab40;fill-opacity:1;stroke:none;stroke-width:.291739;stroke-linecap:round;stroke-linejoin:round;stroke-opacity:1"/><path d="m200.981 156.711-1.523 5.59a19 19 0 0 0-5.309 2.185l-5.018-2.867-4.242 4.242 2.867 5.018a19 19 0 0 0-2.185 5.31l-5.59 1.522v6l5.59 1.523a19 19 0 0 0 2.185 5.31l-2.867 5.017 4.242 4.242 5.018-2.867a19 19 0 0 0 5.31 2.185l1.522 5.59h6l1.523-5.59a19 19 0 0 0 5.31-2.185l5.017 2.867 4.242-4.242-2.867-5.018a19 19 0 0 0 2.185-5.309l5.59-1.523v-6l-5.59-1.523a19 19 0 0 0-2.185-5.309l2.867-5.018-4.242-4.242-5.018 2.867a19 19 0 0 0-5.309-2.185l-1.523-5.59zm3 14a10 10 0 0 1 10 10 10 10 0 0 1-10 10 10 10 0 0 1-10-10 10 10 0 0 1 10-10" style="fill:#0d47a1;fill-opacity:1;stroke:none;stroke-width:2.56434;stroke-linecap:round;stroke-linejoin:round;stroke-dasharray:none;stroke-opacity:1"/><path d="M263.981 38.72c-2.216 0-4 1.784-4 4v30c0 2.216 1.784 4 4 4h22c2.216 0 4-1.784 4-4v-30c0-2.216-1.784-4-4-4zm-9 3v2h-4v4h4v2h4v-8zm36 0v8h4v-2h4v-4h-4v-2zm-24 1a3 3 0 0 1 3 3 3 3 0 0 1-3 3 3 3 0 0 1-3-3 3 3 0 0 1 3-3m-12 11v2h-4v4h4v2h4v-8zm36 0v8h4v-2h4v-4h-4v-2zm-36 12v2h-4v4h4v2h4v-8zm36 0v8h4v-2h4v-4h-4v-2z" style="fill:#4fc3f7;fill-opacity:1;stroke-width:.739914;stroke-linecap:round;stroke-linejoin:round"/></g></svg>