<svg xmlns="http://www.w3.org/2000/svg" xml:space="preserve" width="212" height="212" viewBox="0 0 212 212"><defs><linearGradient id="c" x1="-117.459" x2="268.669" y1="-552.231" y2="-166.103" gradientTransform="matrix(.17768 0 0 .42728 -29.983 -72.54)" gradientUnits="userSpaceOnUse"><stop offset="0%" stop-color="#6da6f0"/><stop offset="50%" stop-color="#1a73e8"/><stop offset="100%" stop-color="#0f4a97"/></linearGradient><linearGradient id="b" x1="592.756" x2="978.884" y1="-345.421" y2="40.707" gradientTransform="matrix(.17768 0 0 .42728 47.856 -62.198)" gradientUnits="userSpaceOnUse"><stop offset="0%" stop-color="#a7e1fb"/><stop offset="50%" stop-color="#4fc3f7"/><stop offset="100%" stop-color="#0a9ee0"/></linearGradient><linearGradient id="a" x1="517.151" x2="903.279" y1="13.746" y2="399.874" gradientTransform="matrix(.17768 0 0 .42728 77.793 10.345)" gradientUnits="userSpaceOnUse"><stop offset="0%" stop-color="#1d6eed"/><stop offset="50%" stop-color="#0d47a1"/><stop offset="100%" stop-color="#06224c"/></linearGradient></defs><g transform="translate(-97.981 7.289)"><path d="M203.981 13.711c-5.25 0-10.002 2.924-13.945 7.483s-7.285 10.853-10.084 18.504c-1.284 3.508-2.445 7.313-3.477 11.361-4.022-1.131-7.896-2.028-11.576-2.672a92 92 0 0 0-4.709-.691 29 29 0 0 1 1.54 6.261c.705.106 1.41.212 2.136.338 3.539.619 7.311 1.504 11.256 2.627a179 179 0 0 0-2.572 15.534 41 41 0 0 1 6.996-6.538c.403-2.479.857-4.875 1.343-7.212 2.244.74 4.524 1.538 6.848 2.417a41 41 0 0 1 9.27-2.746 179 179 0 0 0-14.776-5.558c1-3.977 2.122-7.686 3.356-11.059 2.63-7.188 5.75-12.902 8.986-16.642 3.235-3.74 6.374-5.407 9.408-5.407s6.173 1.666 9.408 5.407c3.236 3.74 6.359 9.454 8.989 16.642 1.235 3.376 2.357 7.085 3.357 11.065a179 179 0 0 0-14.678 5.513 41 41 0 0 1 9.233 2.768c2.303-.87 4.563-1.66 6.787-2.395.475 2.288.918 4.635 1.314 7.059a41 41 0 0 1 7.014 6.62 179 179 0 0 0-2.562-15.462c3.947-1.123 7.722-2.005 11.263-2.623a86 86 0 0 1 2.143-.34 29 29 0 0 1 1.594-6.267 92 92 0 0 0-4.77.697c-3.682.643-7.56 1.54-11.584 2.672-1.032-4.051-2.192-7.859-3.477-11.37-2.799-7.65-6.14-13.945-10.084-18.503-3.942-4.559-8.697-7.483-13.947-7.483m-59.9 70.733a29 29 0 0 1-6.188 1.803 92 92 0 0 0 2.967 3.755c2.399 2.87 5.116 5.781 8.11 8.704-2.995 2.922-5.712 5.833-8.112 8.703-5.226 6.25-9.006 12.29-10.982 17.984-1.977 5.694-2.133 11.272.492 15.818 2.625 4.547 7.536 7.203 13.455 8.338 5.92 1.136 13.041.882 21.066-.52 3.683-.642 7.561-1.54 11.586-2.671 1.032 4.05 2.193 7.857 3.477 11.367a92 92 0 0 0 1.77 4.455 29 29 0 0 1 4.665-4.43c-.27-.684-.54-1.371-.8-2.085-1.235-3.376-2.357-7.087-3.358-11.067 4.777-1.555 9.715-3.4 14.77-5.555a41 41 0 0 1-9.272-2.746 168 168 0 0 1-6.84 2.414 168 168 0 0 1-1.341-7.207 41 41 0 0 1-6.996-6.537 179 179 0 0 0 2.57 15.526c-3.947 1.123-7.722 2.006-11.262 2.625-7.54 1.316-14.051 1.468-18.908.537-4.857-.932-7.868-2.816-9.385-5.444-1.517-2.627-1.645-6.179-.023-10.851 1.621-4.672 5.01-10.232 9.92-16.104 2.307-2.758 4.962-5.587 7.91-8.445a179 179 0 0 0 12.24 10.053 41 41 0 0 1-2.293-9.43 168 168 0 0 1-5.523-4.727 168 168 0 0 1 5.523-4.724 41 41 0 0 1 2.297-9.436 179 179 0 0 0-12.246 10.055c-2.947-2.858-5.6-5.689-7.906-8.447a86 86 0 0 1-1.383-1.711m119.812.004c-.453.57-.908 1.141-1.39 1.718-2.308 2.76-4.962 5.59-7.91 8.448a179 179 0 0 0-12.096-9.944 41 41 0 0 1 2.207 9.37 168 168 0 0 1 5.46 4.675 168 168 0 0 1-5.523 4.727 41 41 0 0 1-2.295 9.432 179 179 0 0 0 12.247-10.053c2.947 2.858 5.6 5.688 7.906 8.447 4.909 5.873 8.295 11.433 9.916 16.106 1.62 4.672 1.492 8.224-.026 10.851-1.517 2.627-4.53 4.513-9.386 5.443-4.858.931-11.367.778-18.907-.54-3.538-.62-7.311-1.502-11.255-2.626a179 179 0 0 0 2.574-15.539 41 41 0 0 1-6.998 6.541 168 168 0 0 1-1.344 7.213 168 168 0 0 1-6.846-2.418 41 41 0 0 1-9.271 2.746 179 179 0 0 0 14.777 5.559c-1 3.978-2.121 7.687-3.355 11.06a86 86 0 0 1-.778 2.022 29 29 0 0 1 4.655 4.46 92 92 0 0 0 1.757-4.42c1.284-3.508 2.444-7.311 3.475-11.358 4.021 1.131 7.897 2.026 11.576 2.67 8.025 1.403 15.147 1.657 21.067.523 5.919-1.134 10.829-3.79 13.455-8.336s2.47-10.122.496-15.816-5.754-11.738-10.979-17.989c-2.398-2.869-5.115-5.78-8.11-8.7 2.996-2.922 5.713-5.834 8.112-8.704a92 92 0 0 0 2.977-3.768 29 29 0 0 1-6.188-1.8" style="fill:#fff;fill-opacity:1;stroke-linecap:round;stroke-linejoin:round"/><path d="M203.981 13.711c-5.25 0-10.002 2.924-13.945 7.483s-7.285 10.853-10.084 18.504c-3.358 9.179-5.894 20.354-7.402 32.758a41 41 0 0 1 6.996-6.538c1.482-9.101 3.535-17.308 6.04-24.158 2.63-7.188 5.752-12.902 8.987-16.642s6.374-5.407 9.408-5.407 6.173 1.666 9.408 5.407c3.236 3.74 6.359 9.454 8.989 16.642 2.492 6.812 4.533 14.969 6.013 24.01a41 41 0 0 1 7.014 6.62c-1.51-12.378-4.04-23.53-7.393-32.692-2.799-7.651-6.14-13.946-10.084-18.504-3.942-4.559-8.697-7.483-13.947-7.483m31.434 111.252a41 41 0 0 1-6.998 6.541c-1.482 9.103-3.533 17.311-6.04 24.16a86 86 0 0 1-.777 2.022 29 29 0 0 1 4.655 4.46 92 92 0 0 0 1.757-4.42c3.359-9.181 5.895-20.357 7.403-32.763m-62.865.004c1.508 12.404 4.044 23.579 7.402 32.758a92 92 0 0 0 1.77 4.455 29 29 0 0 1 4.665-4.43c-.27-.684-.54-1.371-.8-2.085-2.506-6.85-4.56-15.058-6.041-24.16a41 41 0 0 1-6.996-6.538" style="fill:url(#a);fill-opacity:.6;stroke-linecap:round;stroke-linejoin:round"/><path d="M165.229-190.79a92 92 0 0 0-1.781 4.48c-3.353 9.165-5.887 20.319-7.397 32.698a41 41 0 0 1 7.013-6.612c1.48-9.047 3.525-17.21 6.019-24.026.253-.693.514-1.36.777-2.025a29 29 0 0 1-4.631-4.514m39.852 4.476c.267.677.534 1.356.793 2.063 2.5 6.836 4.549 15.026 6.03 24.106a41 41 0 0 1 7.02 6.704c-1.506-12.45-4.047-23.663-7.416-32.87a92 92 0 0 0-1.774-4.462 29 29 0 0 1-4.653 4.459m-49.053 85.16c1.507 12.45 4.051 23.664 7.42 32.872 2.799 7.65 6.14 13.944 10.083 18.503s8.696 7.483 13.946 7.483 10.005-2.925 13.948-7.484c3.943-4.558 7.284-10.853 10.083-18.504 3.362-9.19 5.9-20.38 7.407-32.8a41 41 0 0 1-7.014 6.656c-1.482 9.07-3.53 17.252-6.028 24.082-2.63 7.188-5.754 12.903-8.99 16.643-3.235 3.74-6.372 5.406-9.406 5.406s-6.174-1.665-9.41-5.406-6.356-9.454-8.985-16.642c-2.5-6.835-4.55-15.023-6.03-24.102a41 41 0 0 1-7.024-6.707" style="fill:url(#b);fill-opacity:.6;stroke-linecap:round;stroke-linejoin:round" transform="rotate(60)"/><circle cx="274.981" cy="57.711" r="24" style="fill:#4fc3f7;fill-opacity:1;stroke-width:11.31;stroke-linejoin:round"/><path d="M-38.822-162.569a29 29 0 0 1 4.652-4.464 86 86 0 0 1-.776-2.02c-2.5-6.83-4.546-15.013-6.027-24.085a41 41 0 0 1-7.015-6.654c1.509 12.42 4.047 23.61 7.409 32.8.562 1.535 1.15 3 1.757 4.423m39.878-4.43a29 29 0 0 1 4.656 4.455 91 91 0 0 0 1.768-4.447c3.369-9.207 5.91-20.42 7.416-32.868a41 41 0 0 1-7.018 6.702c-1.481 9.08-3.531 17.269-6.032 24.104-.257.703-.524 1.38-.79 2.053m-49.029-85.335a41 41 0 0 1 7.01-6.597c1.48-9.048 3.524-17.211 6.017-24.027 2.63-7.188 5.751-12.901 8.986-16.642s6.376-5.405 9.41-5.405 6.173 1.665 9.408 5.405c3.236 3.74 6.358 9.454 8.988 16.642 2.5 6.83 4.546 15.013 6.026 24.084a41 41 0 0 1 7.016 6.655c-1.507-12.421-4.045-23.61-7.407-32.8-2.8-7.651-6.14-13.946-10.084-18.504s-8.698-7.482-13.948-7.482-10.001 2.923-13.944 7.482c-3.943 4.558-7.286 10.853-10.085 18.504-3.352 9.16-5.883 20.311-7.393 32.685" style="fill:url(#c);fill-opacity:.6;stroke-linecap:round;stroke-linejoin:round" transform="rotate(120.012)"/><circle cx="203.981" cy="98.711" r="36" style="fill:#ffab40;fill-opacity:1;stroke:none;stroke-width:.291739;stroke-linecap:round;stroke-linejoin:round;stroke-opacity:1"/><circle cx="203.981" cy="180.711" r="24" style="fill:#0d47a1;fill-opacity:1;stroke-width:11.31;stroke-linejoin:round"/><circle cx="132.981" cy="57.711" r="24" style="fill:#1a73e8;fill-opacity:1;stroke-width:11.31;stroke-linejoin:round"/></g></svg>