<svg xmlns="http://www.w3.org/2000/svg" width="48" height="48" viewBox="0 0 48 48"><path d="m21 0-1.523 5.59a19 19 0 0 0-5.309 2.185L9.15 4.908 4.908 9.15l2.867 5.018a19 19 0 0 0-2.185 5.309L0 21v6l5.59 1.523a19 19 0 0 0 2.185 5.309L4.908 38.85l4.242 4.242 5.018-2.867a19 19 0 0 0 5.309 2.185L21 48h6l1.523-5.59a19 19 0 0 0 5.309-2.185l5.018 2.867 4.242-4.242-2.867-5.018a19 19 0 0 0 2.185-5.309L48 27v-6l-5.59-1.523a19 19 0 0 0-2.185-5.309l2.867-5.018-4.242-4.242-5.018 2.867a19 19 0 0 0-5.309-2.185L27 0Zm3 14a10 10 0 0 1 10 10 10 10 0 0 1-10 10 10 10 0 0 1-10-10 10 10 0 0 1 10-10" style="fill:#0d47a1;fill-opacity:1;stroke:none;stroke-width:2.56434;stroke-linecap:round;stroke-linejoin:round;stroke-dasharray:none;stroke-opacity:1"/></svg>